name C:\Users\u0101727\Documents\MyRepositories\upper-imu-dc\Results\main_tracking\Case_10\FLX01_linearAccelerations_bodyFrame.mot
datacolumns 4
datarows 129
range 2.01000000 3.29000000
endheader 
time	radius_imu_x	radius_imu_y	radius_imu_z	
          2.01000000	         -3.41975594	         -3.70106087	          7.25404455	
          2.02000000	         -3.12407744	         -3.76498229	          7.24839939	
          2.03000000	         -2.96853156	         -3.84697388	          7.20945697	
          2.04000000	         -2.96933535	         -3.95439299	          7.13727788	
          2.05000000	         -3.10495807	         -4.08565348	          7.04130088	
          2.06000000	         -3.32265044	         -4.23090280	          6.93677868	
          2.07000000	         -3.55945739	         -4.37643382	          6.83865996	
          2.08000000	         -3.76804681	         -4.51050471	          6.75613474	
          2.09000000	         -3.93516571	         -4.62729623	          6.69007456	
          2.10000000	         -4.07996749	         -4.72718493	          6.63452620	
          2.11000000	         -4.22785777	         -4.81403731	          6.58206053	
          2.12000000	         -4.37863333	         -4.89199413	          6.52963209	
          2.13000000	         -4.49718156	         -4.96402699	          6.48061474	
          2.14000000	         -4.53202395	         -5.03270106	          6.44243461	
          2.15000000	         -4.44480203	         -5.10181462	          6.42218934	
          2.16000000	         -4.23483200	         -5.17711334	          6.42182641	
          2.17000000	         -3.95022981	         -5.26530918	          6.43393646	
          2.18000000	         -3.67787307	         -5.37169562	          6.44101813	
          2.19000000	         -3.51058322	         -5.49743185	          6.42115643	
          2.20000000	         -3.50940781	         -5.63802996	          6.35787255	
          2.21000000	         -3.68627956	         -5.78416047	          6.24703622	
          2.22000000	         -4.01214581	         -5.92460978	          6.09685265	
          2.23000000	         -4.43611645	         -6.05007422	          5.92262456	
          2.24000000	         -4.90238589	         -6.15588871	          5.74025668	
          2.25000000	         -5.36079176	         -6.24292149	          5.56173149	
          2.26000000	         -5.77132409	         -6.31621592	          5.39332220	
          2.27000000	         -6.10484255	         -6.38227806	          5.23595558	
          2.28000000	         -6.34180357	         -6.44648733	          5.08672618	
          2.29000000	         -6.47009635	         -6.51170229	          4.94092639	
          2.30000000	         -6.48198844	         -6.57802112	          4.79432158	
          2.31000000	         -6.37055498	         -6.64300416	          4.64532714	
          2.32000000	         -6.12751018	         -6.70206053	          4.49645630	
          2.33000000	         -5.74469276	         -6.74941140	          4.35436508	
          2.34000000	         -5.22036734	         -6.78012235	          4.22803696	
          2.35000000	         -4.56942914	         -6.79296612	          4.12520333	
          2.36000000	         -3.83374714	         -6.79284692	          4.04796225	
          2.37000000	         -3.08654107	         -6.79107218	          3.98946805	
          2.38000000	         -2.42270556	         -6.80256006	          3.93456388	
          2.39000000	         -1.93126199	         -6.84083109	          3.86639382	
          2.40000000	         -1.66371773	         -6.91327338	          3.77586069	
          2.41000000	         -1.62108844	         -7.01919902	          3.66686749	
          2.42000000	         -1.76373705	         -7.15125318	          3.55421943	
          2.43000000	         -2.03011994	         -7.29865040	          3.45717680	
          2.44000000	         -2.35386423	         -7.45022652	          3.39288453	
          2.45000000	         -2.67661810	         -7.59612395	          3.37210189	
          2.46000000	         -2.95573149	         -7.72809284	          3.39791522	
          2.47000000	         -3.16602899	         -7.83915570	          3.46680201	
          2.48000000	         -3.29735829	         -7.92360871	          3.57070533	
          2.49000000	         -3.35119490	         -7.97812763	          3.69892671	
          2.50000000	         -3.33798193	         -8.00368720	          3.83944906	
          2.51000000	         -3.27460630	         -8.00666896	          3.97994509	
          2.52000000	         -3.18125286	         -7.99765445	          4.10876457	
          2.53000000	         -3.07784131	         -7.98826808	          4.21590525	
          2.54000000	         -2.98071541	         -7.98793779	          4.29378147	
          2.55000000	         -2.90028552	         -8.00219533	          4.33764979	
          2.56000000	         -2.84019804	         -8.03298770	          4.34567601	
          2.57000000	         -2.79818698	         -8.08030986	          4.31870286	
          2.58000000	         -2.76813417	         -8.14360209	          4.25994341	
          2.59000000	         -2.74251202	         -8.22155786	          4.17477034	
          2.60000000	         -2.71469172	         -8.31047234	          4.07041897	
          2.61000000	         -2.68071882	         -8.40282048	          3.95524355	
          2.62000000	         -2.63986123	         -8.48785231	          3.83746498	
          2.63000000	         -2.59370322	         -8.55438422	          3.72384472	
          2.64000000	         -2.54454712	         -8.59431016	          3.61880603	
          2.65000000	         -2.49410103	         -8.60515822	          3.52425137	
          2.66000000	         -2.44280523	         -8.59093412	          3.43994368	
          2.67000000	         -2.38986577	         -8.56130570	          3.36408310	
          2.68000000	         -2.33433229	         -8.52944897	          3.29383693	
          2.69000000	         -2.27703505	         -8.50902893	          3.22585829	
          2.70000000	         -2.22192049	         -8.51105065	          3.15687399	
          2.71000000	         -2.17531376	         -8.54133540	          3.08427676	
          2.72000000	         -2.14323568	         -8.59916534	          3.00660149	
          2.73000000	         -2.12845338	         -8.67754781	          2.92380111	
          2.74000000	         -2.12918469	         -8.76532103	          2.83724478	
          2.75000000	         -2.14004112	         -8.85061753	          2.74939280	
          2.76000000	         -2.15407073	         -8.92441374	          2.66319735	
          2.77000000	         -2.16430889	         -8.98258288	          2.58146008	
          2.78000000	         -2.16425060	         -9.02541296	          2.50648408	
          2.79000000	         -2.14795759	         -9.05505599	          2.44010736	
          2.80000000	         -2.11075849	         -9.07290434	          2.38382617	
          2.81000000	         -2.05066018	         -9.07886550	          2.33864736	
          2.82000000	         -1.96965856	         -9.07282778	          2.30457272	
          2.83000000	         -1.87371183	         -9.05678206	          2.28002654	
          2.84000000	         -1.77071514	         -9.03552969	          2.26174298	
          2.85000000	         -1.66727819	         -9.01520041	          2.24534185	
          2.86000000	         -1.56625403	         -9.00077089	          2.22630376	
          2.87000000	         -1.46668218	         -8.99453305	          2.20081378	
          2.88000000	         -1.36598604	         -8.99634253	          2.16616337	
          2.89000000	         -1.26246441	         -9.00489478	          2.12082426	
          2.90000000	         -1.15629269	         -9.01886029	          2.06444663	
          2.91000000	         -1.04883759	         -9.03742810	          1.99779946	
          2.92000000	         -0.94127700	         -9.06054766	          1.92250684	
          2.93000000	         -0.83369603	         -9.08920857	          1.84056422	
          2.94000000	         -0.72515484	         -9.12564604	          1.75383464	
          2.95000000	         -0.61435081	         -9.17274668	          1.66387475	
          2.96000000	         -0.50022098	         -9.23272845	          1.57223974	
          2.97000000	         -0.38243354	         -9.30513246	          1.48112472	
          2.98000000	         -0.26194840	         -9.38541719	          1.39390888	
          2.99000000	         -0.14143328	         -9.46530454	          1.31507993	
          3.00000000	         -0.02505073	         -9.53503517	          1.24946726	
          3.01000000	          0.08240460	         -9.58658720	          1.20109024	
          3.02000000	          0.17642114	         -9.61632558	          1.17210334	
          3.03000000	          0.25315959	         -9.62589646	          1.16231572	
          3.04000000	          0.30918752	         -9.62105709	          1.16951978	
          3.05000000	          0.34088336	         -9.60901558	          1.19038542	
          3.06000000	          0.34408878	         -9.59548298	          1.22137652	
          3.07000000	          0.31491471	         -9.58278975	          1.25922498	
          3.08000000	          0.25199375	         -9.57002252	          1.30089827	
          3.09000000	          0.15919479	         -9.55496691	          1.34342264	
          3.10000000	          0.04702735	         -9.53647698	          1.38406307	
          3.11000000	         -0.06730452	         -9.51624201	          1.42004740	
          3.12000000	         -0.16830464	         -9.50210182	          1.45185588	
          3.13000000	         -0.23744165	         -9.49391793	          1.47836021	
          3.14000000	         -0.26260908	         -9.48973199	          1.49826230	
          3.15000000	         -0.24870347	         -9.49613185	          1.51402801	
          3.16000000	         -0.20178191	         -9.51247930	          1.52599928	
          3.17000000	         -0.12444519	         -9.53457687	          1.53773054	
          3.18000000	         -0.00597402	         -9.55604228	          1.55686773	
          3.19000000	          0.17365446	         -9.57047210	          1.59378757	
          3.20000000	          0.42622421	         -9.57402386	          1.65666520	
          3.21000000	          0.73572373	         -9.56721152	          1.74566672	
          3.22000000	          1.05044317	         -9.55506540	          1.84967056	
          3.23000000	          1.29502454	         -9.54518412	          1.94856418	
          3.24000000	          1.40061387	         -9.54398416	          2.02181190	
          3.25000000	          1.33542491	         -9.55309147	          2.05853996	
          3.26000000	          1.11474676	         -9.56819724	          2.06175264	
          3.27000000	          0.78766301	         -9.58193683	          2.04448908	
          3.28000000	          0.41635937	         -9.58665615	          2.02252666	
          3.29000000	          0.05935488	         -9.57809919	          2.00828496	
